# xmcd
#
# Track frame offsets:
#	150
#	14827
#	34238
#	53199
#	68201
#	78601
#	96669
#	109948
#	123808
#	138706
#	151659
#	165713
#
# Disc length: 2366 seconds
#
# Revision: 0
# Processed by: cddbd v1.5.2PL0 Copyright (c) Steve Scherf et al.
# Submitted via: EasyCDDAExtractor 15.2.0.1
#
DISCID=a9093c0c
DTITLE=Eduardo Lages - Romances
DYEAR=1900
DGENRE=
TTITLE0=Como vai você
TTITLE1=Você é linda
TTITLE2=Eu nunca amei alguém como eu te amei
TTITLE3=Fadcination
TTITLE4=Here there and everywhere
TTITLE5=Champagne
TTITLE6=Summer of´ 42
TTITLE7=Carinhoso
TTITLE8=Smoke gets in your eyes
TTITLE9=She
TTITLE10=As time goes by
TTITLE11=Ben
EXTD=
EXTT0=
EXTT1=
EXTT2=
EXTT3=
EXTT4=
EXTT5=
EXTT6=
EXTT7=
EXTT8=
EXTT9=
EXTT10=
EXTT11=
PLAYORDER=
